<?xml version="1.0" encoding="UTF-8"?>
<svg width="24px" height="24px" viewBox="0 0 24 24" version="1.1" xmlns="http://www.w3.org/2000/svg" xmlns:xlink="http://www.w3.org/1999/xlink">
    <title>帮助备份 2</title>
    <defs>
        <polygon id="path-1" points="0 0 24 0 24 24 0 24"></polygon>
    </defs>
    <g id="列表搜索区功能特性设计：" stroke="none" stroke-width="1" fill="none" fill-rule="evenodd">
        <g id="列表搜索区-竖排" transform="translate(-266.000000, -187.000000)">
            <g id="编组-4" transform="translate(200.000000, 126.000000)">
                <g id="编组-8" transform="translate(0.000000, 56.000000)">
                    <g id="确定备份-3" transform="translate(62.000000, 1.000000)">
                        <g id="帮助备份-2" transform="translate(4.000000, 4.000000)">
                            <mask id="mask-2" fill="white">
                                <use xlink:href="#path-1"></use>
                            </mask>
                            <use id="xinglan-icon-help备份" fill="#DCDCDD" opacity="0" xlink:href="#path-1"></use>
                            <g id="编组" mask="url(#mask-2)" fill="#000000" fill-rule="nonzero">
                                <g transform="translate(5.000000, 5.000000)" id="形状">
                                    <path d="M11.542125,0 C12.039184,0 12.4935865,0.280821703 12.7159375,0.725374987 L13.8613125,3.01568749 C13.9525028,3.1979724 14,3.39899039 14,3.6028125 L14,7.87500001 L12.6875,7.87500001 L12.6875,4.375 L1.3125,4.375 L1.3125,12.6875 L7.87500001,12.6875 L7.87500001,14 L1.3125,14 C0.587626266,14 0,13.4123737 0,12.6875 L0,3.7095625 C0,3.51182589 0.0447573186,3.31665385 0.130812486,3.138625 L1.288875,0.741124987 C1.50803664,0.287898715 1.96712841,0 2.4705625,0 L11.542125,0 Z M10.85,8.74999995 C11.6018673,8.74985282 12.2964441,9.15167933 12.6711078,9.80354714 C13.0457714,10.4554149 13.0433466,11.257846 12.66475,11.9074375 L13.92475,13.1674375 L13.1823125,13.909875 L11.9258125,12.6538125 C11.1644685,13.1076677 10.2001424,13.0346377 9.51583209,12.4713006 C8.83152175,11.9079636 8.57458958,10.975631 8.87372406,10.1412763 C9.17285854,9.30692151 9.96364272,8.75021825 10.85,8.74999995 L10.85,8.74999995 Z M10.85,10.0625 C10.5686533,10.0625 10.3086783,10.2125966 10.168005,10.45625 C10.0273316,10.6999033 10.0273316,11.0000967 10.168005,11.24375 C10.3086783,11.4874034 10.5686533,11.6375 10.85,11.6375 C11.2849242,11.6375 11.6375,11.2849242 11.6375,10.85 C11.6375,10.4150758 11.2849242,10.0625 10.85,10.0625 L10.85,10.0625 Z M6.125,5.6875 L6.125,7 L2.625,7 L2.625,5.6875 L6.125,5.6875 Z M2.4705625,1.3125 L1.624875,3.0625 L12.4175625,3.0625 L11.542125,1.3125 L2.4705625,1.3125 L2.4705625,1.3125 Z"></path>
                                </g>
                            </g>
                        </g>
                    </g>
                </g>
            </g>
        </g>
    </g>
</svg>