<svg xmlns="http://www.w3.org/2000/svg" xmlns:xlink="http://www.w3.org/1999/xlink" viewBox="0 0 24 24" class="design-iconfont">
  <defs>
    <linearGradient x1="100%" y1="50%" x2="0%" y2="50%" id="l1lf23lgga">
      <stop stop-color="#10295B" offset="0%"/>
      <stop stop-color="#0F2A61" offset="100%"/>
    </linearGradient>
    <path id="okxu11mz5b" d="M0 0H24V24H0z"/>
  </defs>
  <g fill="none" fill-rule="evenodd">
    <mask id="7u8dk2lilc" fill="#fff">
      <use xlink:href="#okxu11mz5b"/>
    </mask>
    <g mask="url(#7u8dk2lilc)" fill="#999" fill-rule="nonzero">
      <path d="M1.31655092,7 C2.03935948,7 2.6253116,7.58595212 2.6253116,8.30876068 C2.6253116,9.03156925 2.03935948,9.61752137 1.31655092,9.61752137 C0.593742351,9.61752137 0.00779023438,9.03156925 0.00779023438,8.30876068 C0.00779023438,7.58595212 0.593742351,7 1.31655092,7 Z M6.99034011,7 C7.71314867,7 8.29910079,7.58595212 8.29910079,8.30876068 C8.29910079,9.03156925 7.71314867,9.61752137 6.99034011,9.61752137 C6.26753154,9.61752137 5.68157942,9.03156925 5.68157942,8.30876068 C5.68157942,7.58595212 6.26753154,7 6.99034011,7 Z M12.6641293,7 C13.3869378,7 13.97289,7.58595212 13.97289,8.30876068 C13.97289,9.03156925 13.3869378,9.61752137 12.6641293,9.61752137 C11.9413207,9.61752137 11.3553686,9.03156925 11.3553686,8.30876068 C11.3553686,7.58595212 11.9413207,7 12.6641293,7 Z M1.31655092,-5.32907052e-15 C2.03935948,-5.32907052e-15 2.6253116,0.585952117 2.6253116,1.30876068 C2.6253116,2.03156925 2.03935948,2.61752137 1.31655092,2.61752137 C0.593742351,2.61752137 0.00779023438,2.03156925 0.00779023438,1.30876068 C0.00779023438,0.585952117 0.593742351,-5.32907052e-15 1.31655092,-5.32907052e-15 Z M6.99034011,-5.32907052e-15 C7.71314867,-5.32907052e-15 8.29910079,0.585952117 8.29910079,1.30876068 C8.29910079,2.03156925 7.71314867,2.61752137 6.99034011,2.61752137 C6.26753154,2.61752137 5.68157942,2.03156925 5.68157942,1.30876068 C5.68157942,0.585952117 6.26753154,-5.32907052e-15 6.99034011,-5.32907052e-15 Z M12.6641293,-5.32907052e-15 C13.3869378,-5.32907052e-15 13.97289,0.585952117 13.97289,1.30876068 C13.97289,2.03156925 13.3869378,2.61752137 12.6641293,2.61752137 C11.9413207,2.61752137 11.3553686,2.03156925 11.3553686,1.30876068 C11.3553686,0.585952117 11.9413207,-5.32907052e-15 12.6641293,-5.32907052e-15 Z" transform="translate(5 7)"/>
    </g>
  </g>
</svg>
