<?xml version="1.0" encoding="UTF-8"?>
<svg width="24px" height="24px" viewBox="0 0 24 24" version="1.1" xmlns="http://www.w3.org/2000/svg" xmlns:xlink="http://www.w3.org/1999/xlink">
    <title>编组 3备份 4</title>
    <defs>
        <rect id="path-1" x="0" y="0" width="24" height="24"></rect>
    </defs>
    <g id="页面-1" stroke="none" stroke-width="1" fill="none" fill-rule="evenodd">
        <g id="单据-详情页（二级页）-下拉" transform="translate(-1858.000000, -1326.000000)">
            <g id="编组-20" transform="translate(280.000000, 866.000000)">
                <g id="编组-5" transform="translate(1554.000000, 179.000000)">
                    <g id="编组-3备份-4" transform="translate(24.000000, 281.000000)">
                        <mask id="mask-2" fill="white">
                            <use xlink:href="#path-1"></use>
                        </mask>
                        <use id="蒙版" fill="#D8D8D8" opacity="0" xlink:href="#path-1"></use>
                        <g id="编组" mask="url(#mask-2)" fill="#B1BAD4" fill-rule="nonzero">
                            <g transform="translate(3.000000, 3.000000)" id="形状">
                                <path d="M5.99072727,0.237481917 C6.50454545,-0.0418576482 6.56509091,-0.0745634228 6.97254545,0.138292264 L7.15527271,0.236945765 C7.31727271,0.445512161 7.34672726,0.483579531 7.3761818,0.664265595 L7.39690908,0.809565049 L7.39690908,17 L5.76054545,17 L5.76054545,2.73974241 L1.15690909,7.26654448 L0,6.12934831 L5.99072727,0.237481917 Z M13.0909091,13.6720525 L13.0909091,15.2805337 L9.81818182,15.2805337 L9.81818182,13.6720525 L13.0909091,13.6720525 Z M14.7272727,9.91892987 L14.7272727,11.527411 L9.81818182,11.527411 L9.81818182,9.91892987 L14.7272727,9.91892987 Z M16.3636364,6.16580723 L16.3636364,7.77428836 L9.81818182,7.77428836 L9.81818182,6.16580723 L16.3636364,6.16580723 Z M18,2.41268459 L18,4.02116572 L9.81818182,4.02116572 L9.81818182,2.41268459 L18,2.41268459 Z"></path>
                            </g>
                        </g>
                    </g>
                </g>
            </g>
        </g>
    </g>
</svg>