<?xml version="1.0" encoding="UTF-8"?>
<svg width="24px" height="24px" viewBox="0 0 24 24" version="1.1" xmlns="http://www.w3.org/2000/svg" xmlns:xlink="http://www.w3.org/1999/xlink">
    <title>编组 3</title>
    <defs>
        <rect id="path-1" x="0" y="0" width="24" height="24"></rect>
    </defs>
    <g id="列表搜索区功能特性设计：" stroke="none" stroke-width="1" fill="none" fill-rule="evenodd">
        <g id="列表搜索区-横排备份" transform="translate(-1872.000000, -148.000000)">
            <g id="编组-7" transform="translate(200.000000, 50.000000)">
                <g id="搜索组件-样式一" transform="translate(0.000000, 76.000000)">
                    <g id="确定备份" transform="translate(1668.000000, 18.000000)">
                        <g id="编组-3" transform="translate(4.000000, 4.000000)">
                            <mask id="mask-2" fill="white">
                                <use xlink:href="#path-1"></use>
                            </mask>
                            <use id="蒙版" fill="#494949" opacity="0" xlink:href="#path-1"></use>
                            <g id="nav-list" mask="url(#mask-2)" fill="#000000" fill-rule="nonzero">
                                <g transform="translate(3.000000, 4.000000)">
                                    <path d="M12.0431626,13.6297326 L12.0431626,15.3007858 L6,15.3007858 L6,13.6297326 L12.0431626,13.6297326 Z M14.6554528,9.00982767 L6,9.00982767 L6,7.33877451 L14.6554528,7.33877451 L14.6554528,9.00982767 Z M18.5,1.04781636 L18.5,2.71886952 L6,2.71886952 L6,1.04781636 L14.7441086,1.04781636 L18.5,1.04781636 Z" id="形状结合"></path>
                                    <polygon id="路径备份-2" transform="translate(3.000000, 7.500000) rotate(-90.000000) translate(-3.000000, -7.500000) " points="10.5 6.66447342 10.5 8.33552658 -4.5 8.33552658 -3.5 6.66447342"></polygon>
                                    <polygon id="路径" points="3.83552658 14.1644734 3.83552658 16.1644734 0 12.8960382 0 10.8960382"></polygon>
                                </g>
                            </g>
                        </g>
                    </g>
                </g>
            </g>
        </g>
    </g>
</svg>